<?xml version="1.0" encoding="UTF-8"?>
<svg xmlns="http://www.w3.org/2000/svg" version="1.1" viewBox="0 0 737.8 276.6">
  <defs>
    <style>
      .cls-1 {
        fill: #fff;
      }
    </style>
  </defs>
  <!-- Generator: Adobe Illustrator 28.7.1, SVG Export Plug-In . SVG Version: 1.2.0 Build 142)  -->
  <g>
    <g id="Layer_1">
      <g>
        <g>
          <path class="cls-1" d="M527.4,110.8l4.8-1v48.5c0,2.3-1.6,4.4-3.9,4.9l-4.8,1v-48.5c0-2.3,1.6-4.4,3.9-4.9Z"/>
          <g>
            <polygon class="cls-1" points="673.7 122.6 673.7 110.4 647.4 136.7 621.1 110.4 621.1 163 629.8 163 629.8 131.6 647.4 149.1 658.2 138.2 673.7 122.6"/>
            <polygon class="cls-1" points="664.9 138.4 664.9 163 673.7 163 673.7 129.5 664.9 138.4"/>
          </g>
          <g>
            <path class="cls-1" d="M409.9,124.6l-10.9-13.9c-.6-.8-1.6-1.3-2.6-1.3h-9.6l17.5,22.3,5.6-7.1Z"/>
            <path class="cls-1" d="M429.6,109.4c-1,0-2,.5-2.6,1.3l-4.6,5.9h0s-14.9,19.1-14.9,19.1c.9,1.2,1.4,2.8,1.4,4.3v17.2c0,2.7,2.1,4.8,4.8,6.4l3.9,2.4v-26.5c0-1.6.6-3.2,1.6-4.5l20-25.6h-9.5Z"/>
          </g>
          <g>
            <rect class="cls-1" x="347" y="110.3" width="8.7" height="38.3"/>
            <path class="cls-1" d="M382.9,156.3c-.6-1.3-1.9-2.1-3.3-2.1h-23.9s-8.7,0-8.7,0v8.8h38.9l-3-6.6Z"/>
          </g>
          <g>
            <path class="cls-1" d="M321.9,119.8h-38.8c-2.6,0-5.1-1.3-6.6-3.6l-3.6-5.6h38.8c2.6,0,5.1,1.3,6.6,3.6l3.6,5.6Z"/>
            <path class="cls-1" d="M321.9,141.5h-38.8c-2.6,0-5.1-1.3-6.6-3.6l-3.6-5.6h38.8c2.6,0,5.1,1.3,6.6,3.6l3.6,5.6Z"/>
            <path class="cls-1" d="M321.9,163.2h-38.8c-2.6,0-5.1-1.3-6.6-3.6l-3.6-5.6h38.8c2.6,0,5.1,1.3,6.6,3.6l3.6,5.6Z"/>
          </g>
          <path class="cls-1" d="M469.8,141.2c-4.2,0-7.8-1.5-10.7-4.4-3-2.9-4.4-6.5-4.4-10.8s1.5-7.7,4.4-10.6c2.9-3,6.5-4.5,10.7-4.5h22.7c1.9,0,3.6,1.3,4,3.2l1.4,5.5h-28.1c-.9,0-1.8.2-2.5.5-.8.3-1.5.8-2.1,1.4-.6.6-1.1,1.3-1.4,2.1-.5,1.1-.6,2.3-.4,3.5s.8,2.5,1.6,3.4c1.3,1.4,2.9,2.1,4.8,2.1h13c4.2,0,7.8,1.5,10.7,4.4,3,3,4.5,6.5,4.5,10.7s-1.5,7.7-4.5,10.7c-3,3-6.5,4.4-10.7,4.4h-29.6l1.5-5.6c.5-1.8,2.1-3.1,4-3.1h24.1c.9,0,1.7-.2,2.5-.5.8-.3,1.5-.8,2.1-1.3.6-.6,1.1-1.3,1.4-2.1.3-.8.5-1.6.5-2.5,0-1.7-.7-3.3-1.9-4.6-1.3-1.3-2.8-1.9-4.6-1.9h-13Z"/>
          <path class="cls-1" d="M597.3,141.4c0,5.9-2.1,11-6.3,15.2-4.3,4.2-9.3,6.2-15.2,6.2s-10.9-2.1-15.2-6.2c-4.2-4.3-6.2-9.3-6.2-15.2v-30.1h8.5v30.1c0,3.6,1.2,6.6,3.7,9.1,2.5,2.5,5.6,3.8,9.1,3.8s6.6-1.3,9.1-3.8c2.6-2.5,3.9-5.5,3.9-9.1v-30.1h8.6v30.1Z"/>
        </g>
        <path id="Logo" class="cls-1" d="M123.2,153.7c2.9,6.8,2.6,14.6-1,21.1-.2.4-.5.8-.7,1.2-2.1,3.9-3.2,8.3-3.2,12.7s.9,8.1,2.8,11.8c2.2,4.4,5.5,8.1,9.6,10.7,4.3,2.7,9.2,4.1,14.2,4.1s10-1.4,14.2-4.1c3.8-2.4,6.9-5.7,9-9.6,4.4,2.3,9,3.9,13.9,4.6-6.8,14.3-21.2,23.5-37.2,23.5s-31.3-9.8-37.8-25c-2.2-5.1-3.3-10.5-3.3-16.2h0c0-7.4,2-14.6,5.7-20.9,3.4-5.7,8.1-10.6,13.7-14.1ZM165.4,153c-4.9-2.8-10.2-4.6-15.8-5.2-1.6-.2-3.2-.3-4.8-.3s-2.1,0-3.1.1c1.8,4.6,2.7,9.5,2.8,14.4.6,0,1.2,0,1.9,0,8.7.5,16.7,5.3,21.2,12.8.2.3.3.5.5.8,2.1,3.4,5,6.3,8.6,8.4,2.9,1.7,6,2.7,9.3,3.1-.2-6.8-2.2-13.5-5.7-19.4-3.6-6.1-8.8-11.2-14.9-14.7ZM187.2,189.7c-4.1-.2-8.1-1.4-11.7-3.5-3.9-2.2-7.1-5.4-9.4-9.2-.2-.3-.3-.5-.5-.8-3.9-6.4-10.5-10.6-17.9-11.5.3,6.6,2.1,13.1,5.4,18.9,3.6,6.3,8.8,11.6,15.2,15.3h0c4.9,2.8,10.2,4.6,15.7,5.2,16.3,1.9,32.2-6.1,40.4-20.3,8-13.8,7.2-30.8-1.8-43.9-3.1,3.8-6.8,7.1-11,9.7,2.3,3.8,3.6,8.1,3.8,12.6.2,5-1,10-3.5,14.4-2.5,4.4-6.2,7.9-10.6,10.2-4.3,2.3-9.2,3.3-14,3ZM168.3,127.5c-4.9,2.8-9,6.5-12.4,11-1,1.3-1.9,2.7-2.7,4.1-.6,1-1.1,1.9-1.5,2.9,4.9.8,9.6,2.3,13.9,4.7,0-.1.1-.3.2-.4.3-.5.6-.9.9-1.4,4.8-7.2,12.8-11.6,21.5-11.9.4,0,.9,0,1.3,0,4-.1,7.9-1.2,11.4-3.2,2.9-1.7,5.3-3.8,7.3-6.5-6-3.2-12.8-4.9-19.7-4.8-7.1,0-14.1,2-20.2,5.5ZM144.9,113.5c-.5,0-1.1,0-1.6,0-8.5-.5-16.3-5.1-20.9-12.4-.3-.5-.6-1.1-.9-1.6-2.1-3.3-4.9-6-8.3-8-2.9-1.7-6.1-2.7-9.4-3.1.3,6.9,2.2,13.5,5.7,19.4,3.6,6.1,8.8,11.2,14.9,14.7,4.9,2.8,10.1,4.5,15.7,5.2,1.6.2,3.2.3,4.7.3s2.1,0,3.1-.1c-1.8-4.6-2.7-9.4-2.8-14.4,0,0-.2,0-.3,0ZM180.3,107.8c3.7-6.3,5.7-13.4,5.8-20.7v-.2c0-5.6-1.1-11-3.3-16.1-6.5-15.2-21.3-25.1-37.9-25.1s-30.4,9.2-37.2,23.6c4.9.7,9.6,2.3,14,4.7,2.2-3.9,5.3-7.2,9-9.6,4.3-2.7,9.2-4.1,14.2-4.1s10,1.4,14.2,4.1c4.1,2.6,7.5,6.3,9.6,10.7,1.8,3.7,2.8,7.6,2.8,11.8s-1.1,8.8-3.2,12.6c-.3.5-.5,1-.8,1.4-3.5,6.5-3.8,14.2-1,20.9,5.6-3.5,10.4-8.3,13.8-14ZM221.7,137c9.9-13.2,10.9-31,2.7-45.2-7.9-13.7-23-21.6-38.7-20.4,1.8,4.6,2.7,9.5,2.8,14.4,4.4,0,8.8,1,12.7,3.1,4.4,2.3,8.1,5.9,10.6,10.2,2.5,4.4,3.7,9.3,3.5,14.3-.2,4.9-1.7,9.6-4.4,13.7-2.3,3.5-5.3,6.3-8.9,8.3-3.8,2.2-8.2,3.4-12.6,3.6-.4,0-.9,0-1.3,0-7.4.2-14.3,3.8-18.7,9.7,5.8,3.1,12.4,4.8,19,4.8,7.3,0,14.5-1.8,20.8-5.5h0c4.8-2.8,9-6.5,12.3-11ZM167.2,77.3c-5.9,3.6-10.7,8.7-14.1,14.6-3.5,6.1-5.4,13.1-5.4,20.2,0,5.6,1.1,11.1,3.2,16.2.7,1.5,1.4,3.1,2.2,4.5.5.9,1.1,1.9,1.8,2.8,3.1-3.8,6.8-7.1,11-9.7,0-.1-.1-.2-.2-.3-.3-.5-.6-1.1-.9-1.6-3.8-7.7-3.6-16.8.5-24.4.3-.5.5-1,.8-1.4,1.9-3.5,2.9-7.4,2.9-11.4s-.7-6.5-1.9-9.5ZM101.6,122c-.2,0-.4,0-.6,0-7.1,0-14.1,1.8-20.2,5.4h0c-4.9,2.8-9.1,6.5-12.4,11-9.9,13.1-11,30.8-3,45.1,7.9,13.8,22.9,21.8,38.8,20.7-1.7-4.6-2.7-9.4-2.8-14.4,0,0-.1,0-.2,0-4.4,0-8.7-1.1-12.6-3.1-4.4-2.4-8.1-5.9-10.6-10.3-2.5-4.4-3.7-9.3-3.4-14.4.2-4.9,1.8-9.6,4.5-13.6,2.3-3.4,5.3-6.2,8.9-8.3,3.9-2.2,8.3-3.4,12.7-3.5.3,0,.6,0,.9,0,7.5-.1,14.5-3.7,19-9.6-5.8-3.1-12.4-4.8-19-4.9ZM136.7,183.7c3.5-6.1,5.4-13.1,5.5-20.2,0-5.6-1-11.1-3.2-16.2-.6-1.5-1.4-3-2.2-4.4-.5-1-1.1-1.9-1.8-2.8-3.1,3.8-6.9,7.1-11.1,9.6,0,.1.2.3.2.4.3.5.5,1,.8,1.5,3.8,7.8,3.5,17-.7,24.6-.2.4-.4.8-.7,1.1-1.9,3.5-2.9,7.4-3,11.4,0,3.3.6,6.5,1.9,9.5,5.8-3.6,10.7-8.6,14.1-14.5ZM102.5,85.7c4.1.2,8.1,1.4,11.7,3.4,3.8,2.2,7.1,5.3,9.4,9,.2.4.5.7.7,1.1,3.9,6.3,10.5,10.4,17.8,11.2-.3-6.6-2.2-13.1-5.5-18.8-3.6-6.3-8.9-11.6-15.3-15.2h0c-4.9-2.8-10.2-4.5-15.7-5.1-16.4-1.8-32.2,6.3-40.4,20.6-7.8,13.8-7,30.8,2,43.7,3.1-3.9,6.8-7.1,11-9.7-2.3-3.8-3.6-8.1-3.8-12.5-.2-5,1-10,3.4-14.3,2.5-4.4,6.1-8,10.6-10.3,4.3-2.3,9.2-3.4,14-3.1ZM123.3,127c-4.7,7.2-12.7,11.6-21.3,11.9-.5,0-1.1,0-1.7,0-4,.1-7.9,1.3-11.3,3.3-2.8,1.7-5.3,3.8-7.2,6.5,6.1,3.2,12.9,4.9,19.8,4.7,7.1-.1,14-2,20.1-5.6,4.9-2.8,9-6.5,12.3-11,1-1.4,1.9-2.8,2.8-4.2.5-.9,1-1.9,1.5-2.9-4.9-.7-9.5-2.3-13.9-4.6,0,.1-.1.2-.2.3-.3.5-.6,1-1,1.6Z"/>
      </g>
    </g>
  </g>
</svg>